<?xml version="1.0" standalone="no"?>
<!DOCTYPE svg PUBLIC "-//W3C//DTD SVG 20010904//EN"
 "http://www.w3.org/TR/2001/REC-SVG-20010904/DTD/svg10.dtd">
<svg version="1.0" xmlns="http://www.w3.org/2000/svg"
 width="800.000000pt" height="600.000000pt" viewBox="0 0 800.000000 600.000000"
 preserveAspectRatio="xMidYMid meet">

<g transform="translate(0.000000,600.000000) scale(0.100000,-0.100000)"
fill="#000000" stroke="none">
<path d="M2746 4611 c-3 -9 -149 -749 -326 -1645 -226 -1143 -318 -1631 -310
-1636 40 -25 491 -80 710 -87 255 -8 454 28 622 113 216 109 399 312 538 599
153 316 228 620 237 962 8 286 -20 465 -104 659 l-40 92 121 63 c67 34 236
123 376 197 312 164 751 375 760 365 4 -5 112 -700 240 -1546 129 -846 237
-1543 241 -1548 11 -18 189 10 189 29 0 13 -493 3247 -507 3325 -5 25 -8 27
-35 22 -16 -4 -167 -72 -336 -151 -296 -140 -385 -185 -907 -458 -132 -69
-244 -125 -250 -125 -5 0 -36 32 -68 70 -156 186 -417 370 -834 590 -68 35
-123 70 -123 76 0 7 -12 15 -27 19 -16 3 -35 8 -43 11 -8 3 -39 8 -67 12 -44
6 -54 5 -57 -8z m504 -441 c343 -202 542 -393 663 -635 131 -262 146 -655 42
-1070 -82 -327 -225 -606 -399 -781 -240 -239 -538 -292 -1144 -204 -68 10
-82 15 -78 29 3 9 129 646 281 1416 152 770 278 1408 281 1418 5 16 21 10 127
-47 67 -35 169 -92 227 -126z"/>
</g>
</svg>
